<svg width="29" height="58" viewBox="0 0 29 58" fill="none" xmlns="http://www.w3.org/2000/svg">
<path d="M24.6249 13.1757V42.884C24.6249 45.6246 23.5362 48.2529 21.5984 50.1908C19.6605 52.1287 17.0322 53.2174 14.2916 53.2174C11.551 53.2174 8.92269 52.1287 6.98481 50.1908C5.04694 48.2529 3.95825 45.6246 3.95825 42.884V10.5924C3.95825 8.87951 4.63868 7.23681 5.84985 6.02564C7.06103 4.81446 8.70373 4.13403 10.4166 4.13403C12.1294 4.13403 13.7721 4.81446 14.9833 6.02564C16.1945 7.23681 16.8749 8.87951 16.8749 10.5924V37.7174C16.8749 38.4025 16.6027 39.0596 16.1183 39.5441C15.6338 40.0285 14.9767 40.3007 14.2916 40.3007C13.6064 40.3007 12.9494 40.0285 12.4649 39.5441C11.9804 39.0596 11.7083 38.4025 11.7083 37.7174V13.1757H7.83325V37.7174C7.83325 39.4302 8.51368 41.0729 9.72485 42.2841C10.936 43.4953 12.5787 44.1757 14.2916 44.1757C16.0044 44.1757 17.6471 43.4953 18.8583 42.2841C20.0695 41.0729 20.7499 39.4302 20.7499 37.7174V10.5924C20.7499 7.8518 19.6612 5.22347 17.7234 3.2856C15.7855 1.34772 13.1572 0.259033 10.4166 0.259033C7.67601 0.259033 5.04769 1.34772 3.10981 3.2856C1.17194 5.22347 0.083252 7.8518 0.083252 10.5924V42.884C0.083252 46.6523 1.5802 50.2663 4.24478 52.9308C6.90935 55.5954 10.5233 57.0924 14.2916 57.0924C18.0599 57.0924 21.6738 55.5954 24.3384 52.9308C27.003 50.2663 28.4999 46.6523 28.4999 42.884V13.1757H24.6249Z" fill="#A9A8C3"/>
</svg>
