<svg width="230" height="84" viewBox="0 0 230 84" fill="none" xmlns="http://www.w3.org/2000/svg">
<path d="M29.2907 56.0156C26.7247 56.0156 24.5272 55.497 22.6982 54.4597C20.8693 53.4223 19.4634 51.9482 18.4807 50.051C17.498 48.1538 17.0066 45.9017 17.0066 43.322C17.0066 41.3839 17.2796 39.6504 17.8392 38.0945C18.3988 36.5385 19.2041 35.2145 20.2551 34.1089C21.306 33.0034 22.5891 32.1571 24.1177 31.5566C25.6464 30.956 27.3662 30.6694 29.2771 30.6694C30.5601 30.6694 31.8158 30.8332 33.0579 31.1607C34.2863 31.4883 35.3782 31.9524 36.3063 32.5529C36.7977 32.8532 37.1253 33.2217 37.2891 33.6585C37.4529 34.0953 37.4802 34.5048 37.3983 34.9142C37.3027 35.3237 37.1116 35.6649 36.825 35.9516C36.5384 36.2382 36.1698 36.3883 35.7467 36.4293C35.31 36.4702 34.8459 36.3201 34.3272 35.9925C33.6038 35.5284 32.8258 35.1872 31.9796 34.9825C31.147 34.7777 30.2871 34.6685 29.4272 34.6685C27.7757 34.6685 26.3698 35.0098 25.237 35.6786C24.0904 36.361 23.2306 37.3301 22.6436 38.6131C22.0567 39.8961 21.7701 41.4658 21.7701 43.3357C21.7701 45.2056 22.0567 46.7479 22.6436 48.0583C23.2306 49.3686 24.0904 50.3513 25.237 51.0337C26.3835 51.7162 27.7757 52.0438 29.4272 52.0438C30.3144 52.0438 31.1879 51.9346 32.0478 51.7162C32.9077 51.4978 33.7267 51.1566 34.491 50.6789C35.0097 50.3786 35.4601 50.2421 35.8696 50.283C36.279 50.324 36.6203 50.4605 36.9069 50.7198C37.1799 50.9791 37.371 51.2931 37.4665 51.6753C37.5621 52.0574 37.5348 52.4532 37.3983 52.8627C37.2618 53.2722 36.9751 53.6271 36.5657 53.9273C35.6375 54.6098 34.5183 55.1285 33.2217 55.4833C31.925 55.8382 30.6147 56.0293 29.2907 56.0293V56.0156Z" fill="#28315C"/>
<path d="M74.5919 55.9473C73.9095 55.9473 73.3908 55.7562 73.0359 55.3877C72.6811 55.0192 72.49 54.4732 72.49 53.7771V32.976C72.49 32.2526 72.6674 31.693 73.0359 31.3108C73.4045 30.9286 73.8685 30.7375 74.4555 30.7375C74.9878 30.7375 75.3972 30.8331 75.6566 31.0378C75.9295 31.2426 76.2435 31.5701 76.612 32.0342L90.0017 49.4094H89.0872V32.8668C89.0872 32.1843 89.2647 31.6657 89.6332 31.2972C89.9881 30.9286 90.5067 30.7375 91.1892 30.7375C91.8716 30.7375 92.3766 30.9286 92.7315 31.2972C93.0864 31.6657 93.2502 32.198 93.2502 32.8668V53.8454C93.2502 54.5005 93.0864 55.0056 92.7588 55.3877C92.4312 55.7699 91.9945 55.9473 91.4349 55.9473C90.8752 55.9473 90.4794 55.8381 90.1519 55.6334C89.8243 55.4287 89.4967 55.0874 89.1145 54.6234L75.7658 37.2481H76.6393V53.7908C76.6393 54.4869 76.4619 55.0328 76.1206 55.4014C75.7658 55.7699 75.2607 55.961 74.5783 55.961L74.5919 55.9473Z" fill="#28315C"/>
<path d="M108.564 55.9474C107.841 55.9474 107.281 55.7427 106.899 55.3332C106.517 54.9238 106.326 54.3642 106.326 53.6408V34.7641H99.5151C98.9145 34.7641 98.4368 34.6003 98.0956 34.2591C97.7544 33.9179 97.5906 33.4675 97.5906 32.8806C97.5906 32.2937 97.7544 31.8159 98.0956 31.502C98.4368 31.1881 98.9009 31.0243 99.5151 31.0243H117.627C118.228 31.0243 118.706 31.1881 119.047 31.502C119.388 31.8159 119.552 32.28 119.552 32.8806C119.552 33.4811 119.388 33.9179 119.047 34.2591C118.706 34.6003 118.242 34.7641 117.627 34.7641H110.817V53.6408C110.817 54.3642 110.625 54.9238 110.257 55.3332C109.888 55.7427 109.329 55.9474 108.578 55.9474H108.564Z" fill="#28315C"/>
<path d="M126.076 55.9474C125.353 55.9474 124.807 55.7427 124.411 55.3332C124.029 54.9238 123.838 54.3642 123.838 53.6408V33.29C123.838 32.5393 124.042 31.9797 124.438 31.5976C124.834 31.2154 125.394 31.0243 126.117 31.0243H134.538C137.241 31.0243 139.329 31.6658 140.79 32.9625C142.264 34.2591 142.987 36.0744 142.987 38.3948C142.987 39.9098 142.66 41.2201 141.991 42.3121C141.322 43.404 140.367 44.2502 139.111 44.8235C137.855 45.4104 136.327 45.697 134.525 45.697L134.839 45.1783H135.999C136.954 45.1783 137.787 45.4104 138.497 45.8745C139.206 46.3385 139.834 47.0756 140.367 48.072L142.987 52.931C143.26 53.4224 143.397 53.9001 143.369 54.3642C143.342 54.8282 143.165 55.2104 142.851 55.497C142.523 55.7837 142.045 55.9338 141.418 55.9338C140.79 55.9338 140.271 55.7973 139.875 55.538C139.479 55.265 139.125 54.8555 138.824 54.2959L135.289 47.799C134.866 47.0073 134.375 46.475 133.801 46.202C133.228 45.929 132.505 45.8062 131.618 45.8062H128.301V53.6408C128.301 54.3642 128.11 54.9238 127.741 55.3332C127.373 55.7427 126.813 55.9474 126.062 55.9474H126.076ZM128.315 42.4895H133.774C135.385 42.4895 136.6 42.1619 137.432 41.4931C138.265 40.8243 138.674 39.8279 138.674 38.504C138.674 37.18 138.265 36.2109 137.432 35.5558C136.6 34.887 135.385 34.5594 133.774 34.5594H128.315V42.4895Z" fill="#28315C"/>
<path d="M149.361 55.9474C148.802 55.9474 148.351 55.8245 148.01 55.5652C147.669 55.3058 147.464 54.9646 147.396 54.5279C147.328 54.0911 147.396 53.6134 147.642 53.0811L156.868 32.6348C157.169 31.9523 157.537 31.4746 157.974 31.188C158.411 30.9014 158.902 30.7512 159.462 30.7512C160.021 30.7512 160.485 30.9014 160.908 31.188C161.345 31.4746 161.7 31.966 162.014 32.6348L171.282 53.0811C171.541 53.6134 171.637 54.1047 171.568 54.5552C171.5 54.9919 171.295 55.3468 170.968 55.5925C170.64 55.8382 170.203 55.961 169.671 55.961C169.016 55.961 168.511 55.7972 168.156 55.4833C167.801 55.1694 167.474 54.6916 167.201 54.0365L164.921 48.7543L166.805 49.9827H152.05L153.934 48.7543L151.695 54.0365C151.395 54.7189 151.081 55.1967 150.753 55.5106C150.426 55.8245 149.962 55.961 149.361 55.961V55.9474ZM159.393 35.8833L154.493 47.5259L153.579 46.4067H165.262L164.389 47.5259L159.462 35.8833H159.393Z" fill="#28315C"/>
<path d="M182.324 55.9474C181.601 55.9474 181.041 55.7427 180.659 55.3332C180.277 54.9238 180.085 54.3642 180.085 53.6408V34.7641H173.275C172.674 34.7641 172.196 34.6003 171.855 34.2591C171.514 33.9179 171.35 33.4675 171.35 32.8806C171.35 32.2937 171.514 31.8159 171.855 31.502C172.196 31.1881 172.66 31.0243 173.275 31.0243H191.387C191.987 31.0243 192.465 31.1881 192.806 31.502C193.148 31.8159 193.311 32.28 193.311 32.8806C193.311 33.4811 193.148 33.9179 192.806 34.2591C192.465 34.6003 192.001 34.7641 191.387 34.7641H184.576V53.6408C184.576 54.3642 184.385 54.9238 184.016 55.3332C183.648 55.7427 183.088 55.9474 182.338 55.9474H182.324Z" fill="#28315C"/>
<path d="M195.127 55.9474C194.567 55.9474 194.117 55.8246 193.775 55.5652C193.434 55.3059 193.229 54.9647 193.161 54.5279C193.093 54.0911 193.161 53.6134 193.407 53.0811L202.634 32.6348C202.934 31.9524 203.302 31.4747 203.739 31.188C204.176 30.9014 204.667 30.7513 205.227 30.7513C205.787 30.7513 206.251 30.9014 206.674 31.188C207.111 31.4747 207.465 31.966 207.779 32.6348L217.047 53.0811C217.306 53.6134 217.402 54.1048 217.334 54.5552C217.265 54.992 217.061 55.3468 216.733 55.5925C216.406 55.8382 215.969 55.961 215.436 55.961C214.781 55.961 214.276 55.7973 213.921 55.4833C213.567 55.1694 213.239 54.6917 212.966 54.0365L210.687 48.7544L212.57 49.9828H197.816L199.699 48.7544L197.461 54.0365C197.16 54.719 196.846 55.1967 196.519 55.5106C196.191 55.8246 195.727 55.961 195.127 55.961V55.9474ZM205.159 35.8833L200.259 47.5259L199.344 46.4067H211.028L210.154 47.5259L205.227 35.8833H205.159ZM207.015 28.7176C206.728 29.0178 206.428 29.1816 206.087 29.1953C205.746 29.1953 205.445 29.1134 205.172 28.9223C204.899 28.7312 204.736 28.4719 204.654 28.1716C204.572 27.8713 204.64 27.5574 204.845 27.2298L207.575 23.2033C207.834 22.8075 208.134 22.5755 208.503 22.4936C208.858 22.4117 209.226 22.439 209.567 22.5618C209.922 22.6847 210.209 22.8894 210.427 23.1624C210.646 23.4354 210.768 23.7357 210.796 24.0769C210.823 24.4181 210.673 24.7457 210.373 25.0733L207.015 28.7449V28.7176Z" fill="#28315C"/>
<path d="M54.5007 34.0953C59.5918 34.0953 63.7411 38.2446 63.7411 43.3357C63.7411 48.4268 59.5918 52.5761 54.5007 52.5761C49.4096 52.5761 45.2603 48.4268 45.2603 43.3357C45.2603 38.2446 49.4096 34.0953 54.5007 34.0953ZM54.5007 30.6284C47.4851 30.6284 41.7935 36.3201 41.7935 43.3357C41.7935 50.3513 47.4851 56.0429 54.5007 56.0429C61.5163 56.0429 67.208 50.3513 67.208 43.3357C67.208 36.3201 61.5163 30.6284 54.5007 30.6284Z" fill="#7CC298"/>
<path d="M40.8652 63.0039C40.8652 63.0039 45.7243 54.9919 54.9101 54.9919C64.0959 54.9919 67.7811 63.0039 67.7811 63.0039" stroke="#7CC298" stroke-width="3.41226" stroke-miterlimit="10" stroke-linecap="round"/>
</svg>
