<svg width="80" height="81" viewBox="0 0 80 81" fill="none" xmlns="http://www.w3.org/2000/svg">
<rect y="80.2468" width="80" height="80" rx="40" transform="rotate(-90 0 80.2468)" fill="#2B2B2B"/>
<path d="M18.0543 38.6873C17.4485 38.9902 17.4485 39.9747 18.0543 40.2777C22.7496 42.8525 27.5206 45.2001 32.6702 46.5633C33.4275 46.7147 34.1848 45.8817 33.7305 45.2001C32.6702 43.6855 31.3828 42.3981 29.8682 41.2621C40.4705 41.5651 51.4514 43.0039 61.9021 40.5048C62.6594 40.3534 62.508 39.0661 61.7506 39.1418C50.9211 40.5048 40.1674 39.4446 29.338 39.2933C30.4739 38.0059 31.6099 36.7185 32.7458 35.5068C33.276 34.9767 32.973 33.8406 32.0643 33.9163C27.0662 34.5223 22.3709 36.1883 18.0543 38.6873ZM27.0662 39.5204C26.3846 39.9747 26.5361 41.2621 27.5963 41.2621C27.672 41.2621 27.7478 41.2621 27.7478 41.2621C28.6565 42.1709 29.5653 43.0039 30.4741 43.9884C26.9905 42.7768 23.7341 41.2621 20.4777 39.5205C23.4311 38.0059 26.4604 36.8699 29.7168 36.2641C28.9595 37.0971 28.2022 38.0059 27.3691 38.839C27.0662 38.9902 26.9905 39.2933 27.0662 39.5204Z" fill="white"/>
<path d="M19.6 39.0468L31.2 35.4468L28 39.8468C29.4666 41.5801 32.16 45.1268 31.2 45.4468C30.24 45.7668 23.0666 41.3134 19.6 39.0468Z" fill="white"/>
</svg>
