<svg width="74" height="75" viewBox="0 0 74 75" fill="none" xmlns="http://www.w3.org/2000/svg">
<path d="M32.6524 1.84362C35.3306 -0.499857 39.348 -0.499857 42.0263 1.50884L42.3611 1.84362L72.1567 26.6175C74.1654 28.2915 74.5002 31.3045 72.8263 33.648C71.8219 34.6523 70.8176 35.3219 69.4785 35.3219H69.1437H67.135C65.4611 35.3219 64.1219 36.661 63.7872 38.3349V38.6697V65.4523C63.7872 70.4741 59.7698 74.8262 54.748 74.8262H54.4133H24.6176C19.5959 74.8262 15.2437 70.8088 15.2437 65.7871V65.4523V53.0654H14.9089C10.8915 51.7262 7.87847 48.0436 7.54368 43.3567V43.0219V42.6871V35.6567H4.19586C2.18716 35.6567 0.513249 33.9828 0.178467 31.9741V31.6393V31.3045C0.178467 30.3001 0.51325 29.2958 1.5176 28.2914L1.85238 27.9567L32.6524 1.84362ZM39.6828 5.19145C38.6785 4.1871 37.0046 4.1871 35.6654 4.85666L35.3306 5.19145L4.19586 31.3045H7.54368C9.55238 31.3045 11.2263 32.6436 11.5611 34.6523V34.9871V35.3219V42.6871C11.5611 45.3654 12.9002 47.7088 14.9089 48.7132V36.9958C14.9089 33.9828 17.2524 31.3045 20.2654 31.3045H20.6002H32.6524C35.6654 31.3045 38.3437 33.648 38.3437 36.661V36.9958V48.0436C38.3437 51.0567 36.0002 53.7349 32.9872 53.7349H32.6524H19.2611V65.4523C19.2611 68.1306 21.2698 70.4741 23.948 70.4741H24.2828H54.4133C57.0915 70.4741 59.435 68.4654 59.435 65.7871V65.4523V38.6697C59.435 34.6523 62.7828 31.3045 66.8002 30.9697H67.135H69.1437C69.4785 30.9697 69.4785 30.9697 69.4785 30.6349C69.8133 30.3001 69.8133 29.9654 69.4785 29.9654L39.6828 5.19145ZM32.9872 35.3219H20.935C20.2654 35.3219 19.5959 35.9914 19.5959 36.661V36.9958V49.3828H32.9872C33.6567 49.3828 34.3263 48.7132 34.3263 48.0436V47.7088V36.661C34.6611 35.9914 33.9915 35.3219 32.9872 35.3219Z" fill="url(#paint0_linear_634_5734)"/>
<defs>
<linearGradient id="paint0_linear_634_5734" x1="10.8502" y1="8.98574" x2="65.4598" y2="72.1424" gradientUnits="userSpaceOnUse">
<stop stop-color="#05E26E"/>
<stop offset="1" stop-color="#90FF2E"/>
</linearGradient>
</defs>
</svg>
