<svg width="80" height="81" viewBox="0 0 80 81" fill="none" xmlns="http://www.w3.org/2000/svg">
<rect x="80" y="0.246826" width="80" height="80" rx="40" transform="rotate(90 80 0.246826)" fill="#2B2B2B"/>
<path d="M61.9457 41.8063C62.5515 41.5034 62.5515 40.5189 61.9457 40.216C57.2504 37.6412 52.4794 35.2935 47.3298 33.9304C46.5725 33.7789 45.8152 34.612 46.2695 35.2935C47.3298 36.8081 48.6172 38.0956 50.1318 39.2315C39.5295 38.9286 28.5486 37.4897 18.0979 39.9888C17.3406 40.1403 17.492 41.4276 18.2494 41.3518C29.0789 39.9888 39.8326 41.049 50.662 41.2004C49.5261 42.4878 48.3901 43.7752 47.2542 44.9869C46.724 45.517 47.027 46.6531 47.9357 46.5773C52.9338 45.9714 57.6291 44.3053 61.9457 41.8063ZM52.9338 40.9733C53.6154 40.5189 53.4639 39.2315 52.4037 39.2315C52.328 39.2315 52.2522 39.2315 52.2522 39.2315C51.3435 38.3227 50.4347 37.4897 49.5259 36.5052C53.0095 37.7169 56.2659 39.2315 59.5223 40.9732C56.5689 42.4878 53.5396 43.6237 50.2832 44.2296C51.0405 43.3965 51.7978 42.4878 52.6309 41.6546C52.9338 41.5034 53.0095 41.2004 52.9338 40.9733Z" fill="white"/>
<path d="M60.4 41.4469L48.8 45.0469L52 40.6469C50.5334 38.9135 47.84 35.3669 48.8 35.0469C49.76 34.7269 56.9334 39.1802 60.4 41.4469Z" fill="white"/>
</svg>
